<?xml version="1.0" encoding="utf-8"?>
<!-- Generator: Adobe Illustrator 21.0.0, SVG Export Plug-In . SVG Version: 6.00 Build 0)  -->
<svg version="1.1" id="Vrstva_1" xmlns="http://www.w3.org/2000/svg" xmlns:xlink="http://www.w3.org/1999/xlink" x="0px" y="0px"
	 viewBox="0 0 100 100" style="enable-background:new 0 0 100 100;" xml:space="preserve">
<g>
	<path d="M91.3,31.5c-3.6-9.3-9.3-17.3-18.1-22.2C69.1,7,64.6,5.4,60,4.3c-2.3-0.5-4.7-1-7.1-1.3c-2.1-0.3-5.4,1.9-2.4,2.2
		c0.5,0.1,1,0.1,1.5,0.2c2.6,1.2,8.1,3.7,8.6,2.5c2.7,0.4,3.4,2.2,7,1.9c1.3,0.6,2.6,1.3,3.8,2c0,0.5,0.8,0.8,1.8,1.1
		c0.9,0.6,1.7,1.2,2.5,1.8c-0.1,0-0.1,0.1-0.1,0.1c0.3,0.4,1.2,1,2.1,1.6c1.4,1.2,2.7,2.5,3.9,3.9c0,1.2,1.6,2.3,2.3,2.9
		c0.2,0.3,0.4,0.6,0.7,0.9c0.9,2.4,2.3,8.6,4.4,8.2c0.2,0.4,0.3,0.9,0.5,1.3c0,1-0.3,2,0.1,3.5c0.8-0.4,0.8-0.1,1.1,0.1
		c0,0.1,0,0.2,0.1,0.2C89.5,38,91,40,90.9,41.3c0.2-0.3,0.5-0.5,0.7-0.8c0.1,0.4,0.2,0.9,0.3,1.3c-0.3-0.1-0.6-0.2-1-0.2
		c0.2,1.1,0.4,2.2,0.6,3.3c0.4-0.3,0.7-0.3,0.9-0.2c0,0.2,0.1,0.4,0.1,0.6c-0.3,0.1-0.6,0.1-0.9,0.1c-0.7,2.9-0.3,3.8,1.1,2.7
		c0.1,0,0.1,0,0.2,0c0,0.5,0.1,0.9,0.1,1.4c-0.3-0.2-0.6-0.3-1-0.5c0,1-0.7,4.1,1,3.5c0,0,0,0,0,0.1c-1,1.2-0.7,2.1-0.2,2.8
		c-0.1,0.8-0.2,1.5-0.3,2.3c-1,0.3-1.9,0.9-1.1,2.4c0.2-0.3,0.4-0.5,0.7-0.6c-0.2,1.1-0.5,2.2-0.8,3.3c-1,1.2-1.6,2.8-2.3,4.6
		c0.2,0.1,0.4,0.2,0.6,0.2c-0.1,0.2-0.2,0.4-0.2,0.6c0,0-0.1,0-0.1,0c0,0.1,0,0.2,0,0.3c-0.5,1.2-1.1,2.3-1.7,3.5
		c-0.1,0.1-0.2,0.2-0.3,0.2c0.1,0,0.1,0,0.2,0c-0.3,0.6-0.6,1.1-1,1.7c-0.1-0.1-0.1-0.2-0.3-0.4c-0.8,1.3-1.5,2.7-2.3,4
		c-5.3,7-12.6,12.3-20.6,15.3c-0.4,0.1-0.8,0.3-1.1,0.4c-1,0.4-2,0.7-3,0.9c-0.7,0-1.4,0.1-1.7,0.2c0.2,0,0.3,0.1,0.5,0.1
		c-1.9,0.4-3.8,0.8-5.7,0.9c-0.3-0.3-0.8-0.4-2.2-0.4c0.1,0.1,0.2,0.3,0.3,0.5c-1.6,0.1-3.2,0.1-4.8-0.1c-1.1-0.7-5.4-1.4-6.1-1
		c-0.4-0.1-0.9-0.2-1.3-0.3c-0.5-1.2-1.5-2.3-2.6-0.8c-0.2-0.1-0.4-0.2-0.6-0.2c-1.3-1.1-4.2-3-5.3-2.6c0,0-0.1,0-0.1,0
		c-0.3-0.2-0.5-0.3-0.8-0.5c-1.2-0.8-3-2.5-3.3-2.8c-0.8-0.7-1.4-0.9-1.9-1c-1-0.9-2.1-1.8-3.1-2.9c-1-1-1.9-2-2.7-3.1
		c0.9-0.6,0.3-0.8-0.7-0.9c-0.4-0.5-0.7-1-1.1-1.5c0.2,0.1,0.4,0.2,0.6,0.3c-0.3-0.4-0.7-0.8-1.2-1.1c-1.7-2.6-3.2-5.3-4.4-8.2
		c-0.8-4.1-1.5-9.1-3-10.5c-0.2-1.2-0.4-2.5-0.5-3.7c0-0.1,0-0.1,0-0.2c-0.3-2.9-0.3-5.8,0-8.7c0.2-0.9,0.4-1.6,0.7-1.6
		c0.7-7.4,1.3-10.2,5-17.2c0,0-0.1,0-0.1,0c0.1-0.2,0.2-0.4,0.3-0.5c0,0,0,0.1,0,0.1c1.3-2.4,3-4.6,4.9-6.6c-0.2,0-0.3-0.1-0.5-0.1
		c0.2-0.2,0.4-0.5,0.6-0.7c0.7-0.1,1.2-0.6,2.5-1.8c1.6-1.4,3.4-2,2.6-3.1c0.2-0.2,0.4-0.3,0.7-0.5c0.1,0.1,0.2,0.3,0.3,0.4
		c1.2-1,3.9-2.1,4-3.4c0.2-0.1,0.4-0.2,0.6-0.3c0,0.1,0.1,0.2,0,0.4c0.4-0.2,0.8-0.5,1.2-0.7C30,10,29.9,9.9,29.8,9.8
		c0.2-0.1,0.4-0.2,0.6-0.3c0,0.1,0.1,0.2,0.1,0.4c4.8-2.6,10.2-2.6,14.8-5C46,4.5,45.1,4.2,43.9,4c0.6-0.1,1.2-0.2,1.8-0.2
		c-0.7,0-1.4,0.1-2.1,0.2c-1.9-0.2-4.4-0.3-4.7-0.3c-1.5,0.2-2.6,0.6-3.5,1c0.5,0,1.1-0.1,1.6-0.1c-0.8,0.7-1.4,0.9-1.7,0.5
		C35.2,5,35.1,5,35.1,4.9c-0.9,0.5-1.5,1.1-2.3,1.7c-1.4,0.5-2.7,1.2-4,1.8c-0.2-0.1-0.6-0.2-0.4-0.7c-1,0.6-6.3,3.9-6,4
		c0.2,0.1,1.7-1.1,2.1-1.1c-2,1.3-8.5,5-8.9,7.4c0.4,0.2,0.7,0.3,0.9,0.5c-0.1,0.1-0.2,0.3-0.3,0.4c-0.2-0.2-0.4-0.5-0.6-0.8
		c-1.4,4.4-6.5,9.5-8.3,15.6C6.7,35.9,3.6,45.2,5,46.9c-0.1-0.1,0.2-0.8,0.5-1.5c0,0.7,0,1.5,0,2.5c-0.2,2.9-0.1,5.9,0.2,8.8
		c0.1,2.9,0.3,5.2,0.4,5.7c0.2-0.1,0.3-0.3,0.5-0.5c0.4,1.9,0.9,3.7,1.5,5.6c0.1,0.5,0.3,1,0.3,1c0-0.2-0.1-0.3-0.1-0.4
		c0,0.1,0.1,0.3,0.1,0.4c0.4,1.8,1,3.4,1.8,4.4c0.5,1,1,2,1.5,2.9c0.5,3.1,5.6,8,6.9,9.2c1.9,1.9,3.4,3.3,4.9,5.7
		c0.7,1.2,3.1,0.9,4,1.5c-0.8-0.6-1.3-0.9-1.7-1.2c0,0,0.1,0.1,0.1,0.1c1.1,0.7,2.3,1.4,3.4,2c0.9,0.5,1.8,0.9,2.6,1.3
		c0.1,0,0.1,0,0.2,0.1c0.5,0.2,0.9,0.4,1.1,0.5c0.6,0.3,1,0.4,1.4,0.5c14,5.1,30.1,2.5,42.4-6.9C94.6,75,99.2,51.8,91.3,31.5z
		 M31.8,9.2c-0.1-0.1-0.2-0.1-0.4-0.2c0.1-0.1,0.3-0.2,0.5-0.3C31.7,8.8,32,9.3,31.8,9.2z M25.4,10.5c-0.1,0.1-0.3,0.2-0.4,0.3
		c-0.1,0-0.2-0.1-0.3-0.2C24.9,10.5,25.2,10.5,25.4,10.5z M17.7,80.2c-0.2-0.2-0.3-0.4-0.5-0.6C17.4,79.6,17.5,79.8,17.7,80.2z
		 M5.9,58.8C5.9,58.9,5.9,58.9,5.9,58.8C5.9,58.9,5.9,58.9,5.9,58.8z M85.8,26.7c0.1-0.2,0.2-0.3,0.3-0.4c0.1,0.1,0.2,0.3,0.3,0.4
		C86.1,26.6,86,26.6,85.8,26.7z"/>
	<path d="M32.2,44.4c0,0,0.3,0.2,0.6,0.5c0.1,0.2,0.2,0.4,0.3,0.6c-0.2,0-0.1,0.1,0.1,0.1c0.7,1.6,1.1,3.4,2.4,3.9
		c0.1,0,0.2,0.1,0.3,0.1c0.1,0.1,0.2,0.2,0.3,0.3c0,0,0-0.1-0.1-0.2c2.3,0.6,1.5-2.8,1-3.9c-1.9-4.9-7.9-8.9-13.1-6.2
		c-2.3,1.2-4.6,3.4-5.4,6c-0.1,0.4-0.1,1.8,0.1,2.9c0,0.1,0,0.2-0.1,0.3c0,0,0,0,0.1,0l0,0.2c0,0,0,0-0.1-0.1
		c-0.1,0.7,0,1.2,0.7,1.2c-1.6,0.1,0.5,0-0.5,0.5c0.9-0.4,1.5-0.1,1.9-0.6c-0.4,0.5,0.9-2.5,1.9-4.2c0.2-0.4,0.5-0.7,0.7-1
		c0.1,0,0.2,0,0.2,0c0-0.1-0.1-0.1-0.2-0.1c0.1-0.1,0.2-0.2,0.3-0.3c0.6-0.2,1.5-1,1.8-1.1c-2.2,1.3,1.3-0.8,0.8-0.8
		c0.1,0,2.5,0.6,3.1,0.8c0.8,0,0.8-0.1,0-0.4c-0.1,0.3-0.1,0.3-0.2,0c0.1-0.1,0.2-0.1,0.2-0.2c0.2,0.1,0.4,0.2,0.7,0.3
		c-0.1,0.3,0.3,0.7,0.7,1c0.4,0.3,1,0.6,1.2,0.6c0,0.1,0.1,0.1,0.1,0.2C32.2,44.5,32.1,44.5,32.2,44.4
		C32.1,44.5,32.2,44.5,32.2,44.4z M19.5,49.9c0,0,0-0.1,0-0.1c0,0,0.1,0,0.2,0C19.9,49.9,19.8,49.9,19.5,49.9z M20.8,48.5
		c0.1-0.1,0.1-0.2,0.2-0.2C21,48.4,20.9,48.5,20.8,48.5z M28.3,42.7C28.3,42.7,28.4,41.9,28.3,42.7L28.3,42.7z M28.9,42.8
		c0.1-0.2,0.2-0.2,0.1,0L28.9,42.8z M30.6,43C30.6,43,30.6,43.1,30.6,43C30.6,43.1,30.6,43.1,30.6,43z M31.2,43.9
		C30.5,43.7,30.9,43.6,31.2,43.9L31.2,43.9z M31.6,43.9C31.6,43.9,31.6,43.9,31.6,43.9C31.7,43.6,31.8,44,31.6,43.9z"/>
	<path d="M31.4,44.7c0,0-0.5-0.2-0.6,0.1C30.6,45.2,31.4,44.7,31.4,44.7z"/>
	<path d="M28.4,43.7c-0.2,0.9,0.7-0.2,0.7-0.2C29,43.5,28.4,43.3,28.4,43.7z"/>
	<path d="M23.9,45c0.1,0.1,0.2-0.3,0-0.3C23.9,44.7,23.7,45,23.9,45z"/>
	<path d="M63.1,49c-1.7,0.4,0.6,0-0.4,0.5c0.9-0.5,1.5-0.3,1.8-0.9c-0.4,0.7,1.4-4.8,2-5.5c-0.1,0-0.2,0-0.3,0
		c0.1-0.2,0.2-0.3,0.3-0.4c0.1,0.1,0.8,0.1,1.4-0.1c-1.6,1.6,2.8-1.3,2-1.3c0.4,0,2.6,0.7,3.3,0.9c0.3,0.1,1.4,0,0-0.5
		c-0.1,0.3-0.1,0.3-0.2,0c0.1-0.1,0.1-0.1,0.2-0.2c0.3,0.1,0.6,0.2,0.8,0.3c0.1,1.4,1.3,1.4,2,1.5c0,0.1,0.1,0.1,0.1,0.2
		c-0.1,0.1,0,0.2,0.1,0.2c0,0,0,0,0-0.1c0.2,0.3,0.4,0.7,0.6,1.1c-0.2-0.1,0,0.2,0.1,0.3c0.1,0.2,0.1,0.5,0.2,0.7
		c-0.1,0-0.1-0.1-0.1-0.1c0,0.1,0.1,0.1,0.1,0.2c0.2,0.9,0.4,1.8,0.5,2.7c0.4,2.4,4.3,1.3,3.7-1c-1.6-5.7-5.4-10.2-11.8-9.7
		c-2.5,0.2-4.7,1.5-6.2,3.5c-0.5,0.6-1,3.3-0.9,5.2c-0.2,0.5-0.3,0.9-0.4,1.3c0,0,0.1,0,0.2,0.1l0,0.2c0,0-0.2-0.1-0.2-0.2
		C62,48.6,62.2,49.1,63.1,49z M63.2,48.8c0,0,0-0.4,0.2-0.2C63.5,48.7,63.5,48.7,63.2,48.8z M67.7,42.1
		C67.5,42.2,67.6,41.6,67.7,42.1L67.7,42.1z M67.9,41.6c0.1,0.1,0.1,0.2,0,0.3C67.8,41.8,67.8,41.7,67.9,41.6z M71.9,41.6
		C71.9,41.6,72,40.8,71.9,41.6L71.9,41.6z M72.6,41.7c0.1-0.2,0.2-0.2,0.2,0L72.6,41.7z M70.5,41.1C70.5,41.1,70.5,41.1,70.5,41.1
		C70.5,41,70.5,41,70.5,41.1z M74.9,42.9C74.9,42.9,75,42.9,74.9,42.9C74.3,42.7,74.7,42.6,74.9,42.9z M75.4,43
		C75.4,43,75.4,43,75.4,43C75.5,42.7,75.6,43.1,75.4,43z"/>
	<path d="M76.4,44.2c0,0-0.2-0.3-0.4,0C75.7,44.5,76.3,44.3,76.4,44.2z"/>
	<path d="M66.9,43.6c0.1,0.1,0.2-0.2,0-0.3C66.9,43.3,66.8,43.5,66.9,43.6z"/>
	<path d="M69,62c0.3-0.2,0.3-0.5,0.1-0.8c-0.5-0.5-2.5-0.7-5.1-0.7c0,0,0.1-0.1,0.1-0.1c-0.1,0-0.3,0.1-0.3,0.1c-1,0-2.1,0-3.1,0.1
		c-0.1-0.2-0.2-0.1-0.3,0c-4.1,0.1-8.4,0.5-9.8,0.4c-0.5,0-1-0.1-1.5-0.1c0.1,0,0.1-0.1,0.1-0.1c-0.2,0-0.3,0.1-0.5,0.1
		c-0.2,0-0.4,0-0.6,0c-1-0.2-2.3-0.6-2.6-0.8c-0.2,0.5-0.5,0.5-0.1,0c-0.5,0.1-1.2,0.1-2,0.1c0,0,0-0.1,0-0.1c0,0-0.1,0-0.2,0.1
		c-2.5,0.1-6,0.1-7.9,0.6c0,0-0.2,0.1-0.2,0.1c-0.8,0.2-1.3,0.6-1.2,1.1c-0.1-0.3-0.3-0.6-0.5-0.8c0.2,0.7,0.1,0.8-0.1,0.5
		c0.1,0.3,0.2,0.4,0.3,0.6c-0.1,0-0.1,0-0.2,0.1c-0.5-0.7-0.8-1.1-0.7-0.2c0,0.2,0.1,0.3,0.1,0.5c-0.1,0-0.1,0-0.2,0
		c0,0-0.3,1.8-0.3,1.6c0,1.2,6.5,12.4,8.6,12.2c0.2,0-0.2-0.5-0.5-0.8c1.4,1.1,2.9,2.1,4.5,2.9c-0.1,0-0.2,0-0.4-0.1
		c2.7,1.2,2.2,1,1,0.3c1.7,0.7,3.5,1.2,5.5,1.5c1.5,0.2,2.9,0.1,4.3-0.2c-0.4,0.1-0.8,0.3-1.2,0.6c0.2,1.2,1.6-0.7,1.7-0.8
		c-0.1,0-0.2,0-0.2,0c2.9-0.7,5.7-2.5,7.9-4.7c0,0,0,0.1,0.1,0.1c0.3,0.2,0.4-0.3,0.4-0.6c0.4-0.4,0.7-0.8,1.1-1.3
		c0.1,0.2,0.2,0.2,0.6-0.1c0.1-0.4,0.1-0.5-0.1-0.5c0.8-1.1,1.5-2.4,2-3.6c0.2,0,0.4,0.1,0.3,0.2c0.3-0.3,0.1-0.4-0.1-0.6
		c0.4-0.9,0.7-1.9,0.9-2.9c0.3-0.2,0.3-1,0.3-1.9C69,63.2,69,62.6,69,62z M34.2,67c0.2,0.7,0.5,1.3,0.9,1.9
		C34.4,68.4,34.1,67.7,34.2,67z M35.2,69.1C35.2,69.1,35.2,69.1,35.2,69.1C35.2,69.1,35.2,69.1,35.2,69.1z M37.3,61.1
		c-0.1,0-0.2,0-0.2,0.1c0-0.1,0.1-0.2,0.1-0.4C37.6,60.4,37.4,60.6,37.3,61.1z M37.7,61c0-0.2,0.1-0.2,0.1-0.2c0,0.1,0,0.1,0,0.2
		C37.8,61,37.8,61,37.7,61z M38.4,60.8c-0.1,0-0.2,0-0.3,0.1C38.1,60.7,38.2,60.3,38.4,60.8C38.4,60.8,38.4,60.8,38.4,60.8z
		 M60.8,64.1c-0.1,0.1-0.3,0.1-0.3,0.2c-0.8,1.5-2.1,2.6-3.7,3.2c-0.2,0.1-0.4,0.3-0.5,0.4c-1.1,0.2-3.1,0.5-3.8,0.6
		c0.1,0,0.2,0.1,0.3,0.1c-0.8,0.9-3.7-0.1-6.3-1.4c-2.3-1.2-4.4-2.6-4.2-3.1c0.1,0,0.3-0.2,0.5-0.3c-0.1-0.1-0.2-0.2-0.2-0.3
		c0.2,0,0.3,0,0.5,0c0,0,0,0,0-0.1c0,0,0,0,0,0.1c0.5,0,1.1,0,1.6,0.1c0.1-0.1,0.1-0.1,0.2,0c0.1,0,0.2,0,0.3,0c0,0,0.1,0,0.1,0
		l-0.2-0.2c0,0.1,0,0.2,0,0.3c-0.5-0.2-1.4-0.1-2.1-0.1c-0.2,0-0.4,0-0.6,0c0,0,0.2,0,0.5-0.1c0,0,0-0.1-0.1-0.1
		c0.1,0,0.1,0,0.2,0.1c1-0.2,2.9-0.4,2.6,0c0,0,0.3,0,0.7,0c0,0.1,0,0.1,0,0.2c0.1-0.1,0.1-0.1,0.1-0.2c0.1,0,0.3,0,0.4,0.1
		c0,0.1,0,0.1,0.1,0c0.2,0,0.4,0,0.6,0c0,0,0.2-0.6,0.2-0.5c0.4-0.2,0.1,0.5,0.4,0.6c1.5,0.6,7.5-1.5,9.5,0.4c0,0-0.1,0-0.1,0.1
		c0.4,0,0.7,0,1.1,0c0.2-0.1,0.4-0.1,0.5-0.1c-0.5-0.1-2.2-0.4-0.3-0.2c0.7-0.1,2,0,2.5,0c-0.2,0.1-0.5,0.3-0.7,0.4
		c0,0.1-0.1,0.1-0.1,0.2C60.6,64.2,60.7,64.2,60.8,64.1z"/>
</g>
</svg>
